<svg xmlns="http://www.w3.org/2000/svg" viewBox="0 0 1600 1000">
  <g fill="none" stroke="#2E3E8F" stroke-linecap="round" stroke-linejoin="round">
    <rect x="34" y="34" width="1532" height="932" rx="120" stroke-width="4" opacity=".38"/>
    <path d="M60 210h180L300 92l60 118h180M1060 210h180l60-118 60 118h180M60 790h180l60 118 60-118h180M1060 790h180l60 118 60-118h180" stroke-width="2" opacity=".28"/>
    <g transform="translate(220 205)" opacity=".3" stroke-width="2.5">
      <circle r="78"/><circle r="58"/><circle r="18" fill="#E75C26" fill-opacity=".45" stroke="none"/>
      <path d="M0-112v22M0 90v22M-112 0h22M90 0h22M-79-79l16 16M63 63l16 16M79-79L63-63M-63 63l-16 16"/>
    </g>
    <g opacity=".34" stroke-width="3">
      <path d="M122 860c84-150 137-311 148-484M267 485c-57-28-89-77-91-139 61 19 94 67 91 139ZM252 598c63-12 111-48 146-105-66-8-119 28-146 105ZM215 710c-63-1-114-29-154-78 64-19 120 7 154 78Z"/>
      <path d="M1478 860c-84-150-137-311-148-484M1333 485c57-28 89-77 91-139-61 19-94 67-91 139ZM1348 598c-63-12-111-48-146-105 66-8 119 28 146 105ZM1385 710c63-1 114-29 154-78-64-19-120 7-154 78Z"/>
    </g>
    <g opacity=".22" stroke-width="2">
      <path d="M1110 140l58 68 79-28 63 84 99-31M1168 208l22 92 57-120M1310 264l31 77"/>
      <circle cx="1110" cy="140" r="5" fill="#E75C26" stroke="none"/><circle cx="1168" cy="208" r="5" fill="#E75C26" stroke="none"/><circle cx="1247" cy="180" r="5" fill="#E75C26" stroke="none"/><circle cx="1310" cy="264" r="5" fill="#E75C26" stroke="none"/><circle cx="1409" cy="233" r="5" fill="#E75C26" stroke="none"/>
      <path d="M360 840q90-80 180 0M1060 840q90-80 180 0"/>
    </g>
  </g>
  <g fill="#E75C26" opacity=".28">
    <path d="M800 73l10 22 23 10-23 10-10 22-10-22-23-10 23-10Z"/><circle cx="380" cy="245" r="4"/><circle cx="1220" cy="760" r="4"/>
  </g>
</svg>
